<?xml version="1.0" encoding="UTF-8"?>
<svg width="368px" height="284px" viewBox="0 0 368 284" version="1.1" xmlns="http://www.w3.org/2000/svg" xmlns:xlink="http://www.w3.org/1999/xlink">
    <!-- Generator: Sketch 53.2 (72643) - https://sketchapp.com -->
    <title>Group 6@1x</title>
    <desc>Created with Sketch.</desc>
    <g id="Page-1" stroke="none" stroke-width="1" fill="none" fill-rule="evenodd">
        <g id="Desktop-HD" transform="translate(0.000000, -740.000000)">
            <rect fill="#FFFFFF" x="0" y="0" width="1440" height="1024"></rect>
            <g id="Group-6" transform="translate(-8.000000, 471.000000)">
                <circle id="Oval" fill="#E2E2E2" cx="131" cy="172" r="112"></circle>
                <rect id="Rectangle" fill="#FFFFFF" x="46" y="222" width="330" height="62"></rect>
            </g>
            <g id="Group-6" transform="translate(-8.000000, 740.000000)">
                <g id="Group-5" transform="translate(110.000000, 32.000000)"></g>
                <g id="Group-4" transform="translate(110.000000, 32.000000)"></g>
                <circle id="Oval" fill="#DDDFE3" cx="131" cy="172" r="112"></circle>
                <g id="Group-2" transform="translate(110.000000, 32.000000)">
                    <polygon id="Polygon" fill-opacity="0.7" fill="#52D9C2" points="97 0 181.004464 46 181.004464 138 97 184 12.9955358 138 12.9955358 46"></polygon>
                    <text id="M-U-S-E-U-M-S-E-A-R" font-family="BanglaSangamMN-Bold, Bangla Sangam MN" font-size="26" font-weight="bold" fill="#FFFFFF">
                        <tspan x="28" y="70">M</tspan>
                        <tspan x="49.2900391" y="70" font-size="20"> </tspan>
                        <tspan x="53.8505859" y="70">U</tspan>
                        <tspan x="72.0810547" y="70" font-size="20"> </tspan>
                        <tspan x="76.6416016" y="70">S</tspan>
                        <tspan x="92.4980469" y="70" font-size="20"> </tspan>
                        <tspan x="97.0585938" y="70">E</tspan>
                        <tspan x="113.727539" y="70" font-size="20"> </tspan>
                        <tspan x="118.288086" y="70">U</tspan>
                        <tspan x="136.518555" y="70" font-size="20"> </tspan>
                        <tspan x="141.079102" y="70">M</tspan>
                        <tspan x="28" y="101">S</tspan>
                        <tspan x="43.8564453" y="101" font-size="24"> </tspan>
                        <tspan x="49.3291016" y="101">E</tspan>
                        <tspan x="65.9980469" y="101" font-size="24"> </tspan>
                        <tspan x="71.4707031" y="101">A</tspan>
                        <tspan x="90.1328125" y="101" font-size="24"> </tspan>
                        <tspan x="95.6054688" y="101">R</tspan>
                        <tspan x="113.175781" y="101" font-size="24"> </tspan>
                        <tspan x="118.648438" y="101">C</tspan>
                        <tspan x="137.082031" y="101" font-size="24"> </tspan>
                        <tspan x="142.554688" y="101">H</tspan>
                        <tspan x="28" y="132">B</tspan>
                        <tspan x="44.8466797" y="132" font-size="18">  </tspan>
                        <tspan x="53.0556641" y="132">E</tspan>
                        <tspan x="69.7246094" y="132" font-size="18">  </tspan>
                        <tspan x="77.9335938" y="132">R</tspan>
                        <tspan x="95.5039063" y="132" font-size="18">  </tspan>
                        <tspan x="103.712891" y="132">L</tspan>
                        <tspan x="118.426758" y="132" font-size="18">  </tspan>
                        <tspan x="126.635742" y="132">I</tspan>
                        <tspan x="134.125977" y="132" font-size="18">  </tspan>
                        <tspan x="142.334961" y="132">N</tspan>
                    </text>
                </g>
                <rect id="Rectangle" fill="#FFFFFF" x="0" y="0" width="116" height="255"></rect>
                <rect id="Rectangle" fill="#FFFFFF" x="46" y="222" width="330" height="62"></rect>
            </g>
        </g>
    </g>
</svg>